<?xml version="1.0" encoding="UTF-8"?>
<svg width="600px" height="600px" viewBox="0 0 600 600" version="1.1" xmlns="http://www.w3.org/2000/svg" xmlns:xlink="http://www.w3.org/1999/xlink">
    <!-- Generator: Sketch 55.2 (78181) - https://sketchapp.com -->
    <title>Artboard</title>
    <desc>Created with Sketch.</desc>
    <defs>
        <filter x="-6.5%" y="-6.5%" width="113.0%" height="113.0%" filterUnits="objectBoundingBox" id="filter-1">
            <feOffset dx="0" dy="0" in="SourceAlpha" result="shadowOffsetOuter1"></feOffset>
            <feGaussianBlur stdDeviation="10" in="shadowOffsetOuter1" result="shadowBlurOuter1"></feGaussianBlur>
            <feColorMatrix values="0 0 0 0 0   0 0 0 0 0   0 0 0 0 0  0 0 0 0.5 0" type="matrix" in="shadowBlurOuter1" result="shadowMatrixOuter1"></feColorMatrix>
            <feMerge>
                <feMergeNode in="shadowMatrixOuter1"></feMergeNode>
                <feMergeNode in="SourceGraphic"></feMergeNode>
            </feMerge>
        </filter>
    </defs>
    <g id="Artboard" stroke="none" stroke-width="1" fill="none" fill-rule="evenodd">
        <g id="Astronaut" filter="url(#filter-1)" fill="#FAFAFA" fill-rule="nonzero">
            <path d="M479.764404,59.9135257 C542.615874,103.126443 588.714278,178.677412 600,256.560548 L289.85264,329.29698 C328.085021,241.897674 410.527691,129.929163 479.764404,59.9135257 Z M542.27299,234.149184 C530.110221,189.293958 505.823037,149.426456 473.146981,118.282219 C467.684735,124.453465 462.226413,130.781563 456.793959,137.237088 C485.560723,164.955349 506.997676,200.228386 517.911187,239.862566 L542.27299,234.149184 Z" id="Visor"></path>
            <path d="M3.79288385,479.539617 L17.5855433,430.667012 L456.054186,535.411879 L442.261527,584.284483 C440.676388,589.708029 436.775519,594.3373 431.419378,597.151167 C426.063237,599.965035 419.691885,600.732311 413.710722,599.283748 L20.4820017,505.413349 C14.471834,504.004006 9.33033855,500.480169 6.19742273,495.623098 C3.0645069,490.766028 2.19903332,484.977047 3.79288385,479.539617 Z" id="Neck"></path>
            <path d="M226.26848,452.665934 L17.3290272,400.043513 C-36.1943847,250.887395 36.1606569,73.5897609 208.200096,13.8124419 C355.359419,-30.4990442 459.708519,45.9684177 459.618038,46.0827933 C373.478219,126.757326 298.190351,235.981529 257.164037,337.546576 C242.49415,374.846536 232.140052,413.426747 226.26848,452.665934 Z M161.924801,206.303008 C134.159613,206.303008 111.65148,228.687673 111.65148,256.300558 C111.65148,283.913442 134.159613,306.298107 161.924801,306.298107 C189.689989,306.298107 212.198121,283.913442 212.198121,256.300558 C212.198121,228.687673 189.689989,206.303008 161.924801,206.303008 Z" id="Helmet"></path>
            <path d="M252.888313,460.91553 L253.577946,455.790781 C258.594535,422.453477 266.997765,389.607265 278.680586,357.67059 L526.948455,299.673432 L546.534032,412.167919 L491.363394,412.167919 L463.778075,510.913079 L252.888313,460.91553 Z" id="Face" opacity="0.5"></path>
        </g>
    </g>
</svg>